Format                                   : Matroska
Format version                           : Version 2
File size                                : 696 MiB
Duration                                 : 2h 17mn
Overall bit rate                         : 708 Kbps
Movie name                               : Carry On Jatta [2012].480p.DVDRip.x264.Punjabi.6Ch.by K@rtik [ExD Exclusive]
Codec ID                                 : V_MPEG4/ISO/AVC
Duration                                 : 2h 17mn
Bit rate                                 : 579 Kbps
Width                                    : 720 pixels
Height                                   : 308 pixels
Display aspect ratio                     : 2.35:1
Frame rate                               : 29.970 fps
Stream size                              : 556 MiB (80%)
Title                                    : K@rtik
Codec ID                                 : A_AC3
Duration                                 : 2h 17mn
Bit rate mode                            : Constant
Bit rate                                 : 128 Kbps
Channel(s)                               : 6 channels
Channel positions                        : Front: L C R, Side: L R, LFE
Sampling rate                            : 48.0 KHz
Bit depth                                : 16 bits
Compression mode                         : Lossy
Stream size                              : 126 MiB (18%)
Title                                    : K@rtik
Language                                 : Panjabi 
http://img210.imageshack.us/img210/5512/exdp.jpg
 
http://img13.imageshack.us/img13/3616/63532704.png 
http://img696.imageshack.us/img696/628/83681717.png 
http://img854.imageshack.us/img854/7884/28211619.png 
http://img204.imageshack.us/img204/9702/50047008.png 
http://img442.imageshack.us/img442/5954/67363847.png 
http://img824.imageshack.us/img824/139/50409845.png 
http://img59.imageshack.us/img59/7123/91456650.png 
http://img4.imageshack.us/img4/3387/18806376.png 
http://img411.imageshack.us/img411/857/41856249.png 
http://img196.imageshack.us/img196/3851/39741000.png
[IMG]http://img189.imageshack.us/img189/2563/32301514.png